<?xml version="1.0" encoding="UTF-8" standalone="no"?>
<!DOCTYPE svg PUBLIC "-//W3C//DTD SVG 1.1//EN"
 "http://www.w3.org/Graphics/SVG/1.1/DTD/svg11.dtd">
<!-- Generated by graphviz version 2.38.0 (20140413.2041)
 -->
<!-- Title: dependencies Pages: 1 -->
<svg width="834pt" height="404pt"
 viewBox="0.00 0.00 834.29 404.00" xmlns="http://www.w3.org/2000/svg" xmlns:xlink="http://www.w3.org/1999/xlink">
<g id="graph0" class="graph" transform="scale(1 1) rotate(0) translate(4 400)">
<title>dependencies</title>
<polygon fill="white" stroke="none" points="-4,4 -4,-400 830.292,-400 830.292,4 -4,4"/>
<!-- N0 -->
<g id="node1" class="node"><title>N0</title>
<ellipse fill="none" stroke="black" cx="591.895" cy="-378" rx="114.28" ry="18"/>
<text text-anchor="middle" x="591.895" y="-374.3" font-family="Times,serif" font-size="14.00">handlebars&#45;markdown&#45;helper</text>
</g>
<!-- N1 -->
<g id="node2" class="node"><title>N1</title>
<ellipse fill="none" stroke="black" cx="492.895" cy="-306" rx="48.9926" ry="18"/>
<text text-anchor="middle" x="492.895" y="-302.3" font-family="Times,serif" font-size="14.00">handlebars</text>
</g>
<!-- N0&#45;&gt;N1 -->
<g id="edge1" class="edge"><title>N0&#45;&gt;N1</title>
<path fill="none" stroke="black" d="M568.182,-360.233C554.506,-350.563 537.186,-338.317 522.608,-328.009"/>
<polygon fill="black" stroke="black" points="524.575,-325.113 514.389,-322.198 520.533,-330.829 524.575,-325.113"/>
</g>
<!-- N2 -->
<g id="node3" class="node"><title>N2</title>
<ellipse fill="none" stroke="black" cx="691.895" cy="-306" rx="69.5877" ry="18"/>
<text text-anchor="middle" x="691.895" y="-302.3" font-family="Times,serif" font-size="14.00">pulldown&#45;cmark</text>
</g>
<!-- N0&#45;&gt;N2 -->
<g id="edge2" class="edge"><title>N0&#45;&gt;N2</title>
<path fill="none" stroke="black" d="M615.848,-360.233C629.15,-350.922 645.865,-339.221 660.234,-329.163"/>
<polygon fill="black" stroke="black" points="662.641,-331.75 668.826,-323.148 658.627,-326.015 662.641,-331.75"/>
</g>
<!-- N9 -->
<g id="node10" class="node"><title>N9</title>
<ellipse fill="none" stroke="black" cx="687.895" cy="-234" rx="48.1917" ry="18"/>
<text text-anchor="middle" x="687.895" y="-230.3" font-family="Times,serif" font-size="14.00">lazy_static</text>
</g>
<!-- N1&#45;&gt;N9 -->
<g id="edge6" class="edge"><title>N1&#45;&gt;N9</title>
<path fill="none" stroke="black" d="M526.861,-292.807C559.577,-281.063 609.195,-263.251 644.703,-250.505"/>
<polygon fill="black" stroke="black" points="646.088,-253.726 654.318,-247.053 643.723,-247.138 646.088,-253.726"/>
</g>
<!-- N10 -->
<g id="node11" class="node"><title>N10</title>
<ellipse fill="none" stroke="black" cx="546.895" cy="-90" rx="27" ry="18"/>
<text text-anchor="middle" x="546.895" y="-86.3" font-family="Times,serif" font-size="14.00">log</text>
</g>
<!-- N1&#45;&gt;N10 -->
<g id="edge7" class="edge"><title>N1&#45;&gt;N10</title>
<path fill="none" stroke="black" d="M511.759,-289.16C535.978,-267.454 576.797,-225.893 592.895,-180 598.191,-164.902 598.493,-158.989 592.895,-144 588.3,-131.694 579.416,-120.354 570.672,-111.347"/>
<polygon fill="black" stroke="black" points="573.075,-108.803 563.456,-104.361 568.206,-113.832 573.075,-108.803"/>
</g>
<!-- N11 -->
<g id="node12" class="node"><title>N11</title>
<ellipse fill="none" stroke="black" cx="225.895" cy="-234" rx="27" ry="18"/>
<text text-anchor="middle" x="225.895" y="-230.3" font-family="Times,serif" font-size="14.00">num</text>
</g>
<!-- N1&#45;&gt;N11 -->
<g id="edge8" class="edge"><title>N1&#45;&gt;N11</title>
<path fill="none" stroke="black" d="M453.311,-295.302C411.394,-284.941 343.336,-267.861 284.895,-252 276.777,-249.797 268.057,-247.336 259.878,-244.987"/>
<polygon fill="black" stroke="black" points="260.826,-241.617 250.247,-242.201 258.88,-248.342 260.826,-241.617"/>
</g>
<!-- N12 -->
<g id="node13" class="node"><title>N12</title>
<ellipse fill="none" stroke="black" cx="393.895" cy="-234" rx="50.0912" ry="18"/>
<text text-anchor="middle" x="393.895" y="-230.3" font-family="Times,serif" font-size="14.00">quick&#45;error</text>
</g>
<!-- N1&#45;&gt;N12 -->
<g id="edge9" class="edge"><title>N1&#45;&gt;N12</title>
<path fill="none" stroke="black" d="M471.414,-289.811C457.498,-279.972 439.179,-267.019 423.843,-256.175"/>
<polygon fill="black" stroke="black" points="425.862,-253.317 415.677,-250.401 421.821,-259.032 425.862,-253.317"/>
</g>
<!-- N13 -->
<g id="node14" class="node"><title>N13</title>
<ellipse fill="none" stroke="black" cx="492.895" cy="-234" rx="30.5947" ry="18"/>
<text text-anchor="middle" x="492.895" y="-230.3" font-family="Times,serif" font-size="14.00">regex</text>
</g>
<!-- N1&#45;&gt;N13 -->
<g id="edge10" class="edge"><title>N1&#45;&gt;N13</title>
<path fill="none" stroke="black" d="M492.895,-287.697C492.895,-279.983 492.895,-270.712 492.895,-262.112"/>
<polygon fill="black" stroke="black" points="496.395,-262.104 492.895,-252.104 489.395,-262.104 496.395,-262.104"/>
</g>
<!-- N14 -->
<g id="node15" class="node"><title>N14</title>
<ellipse fill="none" stroke="black" cx="225.895" cy="-162" rx="59.5901" ry="18"/>
<text text-anchor="middle" x="225.895" y="-158.3" font-family="Times,serif" font-size="14.00">rustc&#45;serialize</text>
</g>
<!-- N1&#45;&gt;N14 -->
<g id="edge11" class="edge"><title>N1&#45;&gt;N14</title>
<path fill="none" stroke="black" d="M452.612,-295.792C419.654,-287.266 372.514,-272.756 334.895,-252 302.651,-234.209 270.586,-206.511 249.67,-186.742"/>
<polygon fill="black" stroke="black" points="251.859,-183.992 242.222,-179.591 247.011,-189.042 251.859,-183.992"/>
</g>
<!-- N8 -->
<g id="node9" class="node"><title>N8</title>
<ellipse fill="none" stroke="black" cx="789.895" cy="-234" rx="36.2938" ry="18"/>
<text text-anchor="middle" x="789.895" y="-230.3" font-family="Times,serif" font-size="14.00">getopts</text>
</g>
<!-- N2&#45;&gt;N8 -->
<g id="edge16" class="edge"><title>N2&#45;&gt;N8</title>
<path fill="none" stroke="black" d="M714.625,-288.765C728.615,-278.771 746.663,-265.88 761.579,-255.226"/>
<polygon fill="black" stroke="black" points="763.842,-257.91 769.945,-249.25 759.773,-252.214 763.842,-257.91"/>
</g>
<!-- N3 -->
<g id="node4" class="node"><title>N3</title>
<ellipse fill="none" stroke="black" cx="78.895" cy="-90" rx="57.3905" ry="18"/>
<text text-anchor="middle" x="78.895" y="-86.3" font-family="Times,serif" font-size="14.00">advapi32&#45;sys</text>
</g>
<!-- N4 -->
<g id="node5" class="node"><title>N4</title>
<ellipse fill="none" stroke="black" cx="163.895" cy="-18" rx="34.394" ry="18"/>
<text text-anchor="middle" x="163.895" y="-14.3" font-family="Times,serif" font-size="14.00">winapi</text>
</g>
<!-- N3&#45;&gt;N4 -->
<g id="edge3" class="edge"><title>N3&#45;&gt;N4</title>
<path fill="none" stroke="black" d="M98.6094,-72.7646C110.437,-63.0242 125.608,-50.5308 138.347,-40.0392"/>
<polygon fill="black" stroke="black" points="140.814,-42.5417 146.309,-33.4828 136.364,-37.1382 140.814,-42.5417"/>
</g>
<!-- N5 -->
<g id="node6" class="node"><title>N5</title>
<ellipse fill="none" stroke="black" cx="55.895" cy="-18" rx="55.7903" ry="18"/>
<text text-anchor="middle" x="55.895" y="-14.3" font-family="Times,serif" font-size="14.00">winapi&#45;build</text>
</g>
<!-- N3&#45;&gt;N5 -->
<g id="edge4" class="edge"><title>N3&#45;&gt;N5</title>
<path fill="none" stroke="black" d="M73.3274,-72.055C70.7386,-64.1762 67.5976,-54.6165 64.6988,-45.794"/>
<polygon fill="black" stroke="black" points="68.0179,-44.6831 61.5712,-36.2753 61.3677,-46.8682 68.0179,-44.6831"/>
</g>
<!-- N6 -->
<g id="node7" class="node"><title>N6</title>
<ellipse fill="none" stroke="black" cx="397.895" cy="-162" rx="55.7903" ry="18"/>
<text text-anchor="middle" x="397.895" y="-158.3" font-family="Times,serif" font-size="14.00">aho&#45;corasick</text>
</g>
<!-- N7 -->
<g id="node8" class="node"><title>N7</title>
<ellipse fill="none" stroke="black" cx="355.895" cy="-90" rx="40.0939" ry="18"/>
<text text-anchor="middle" x="355.895" y="-86.3" font-family="Times,serif" font-size="14.00">memchr</text>
</g>
<!-- N6&#45;&gt;N7 -->
<g id="edge5" class="edge"><title>N6&#45;&gt;N7</title>
<path fill="none" stroke="black" d="M387.728,-144.055C382.775,-135.801 376.716,-125.701 371.218,-116.538"/>
<polygon fill="black" stroke="black" points="374.115,-114.563 365.968,-107.789 368.112,-118.165 374.115,-114.563"/>
</g>
<!-- N15 -->
<g id="node16" class="node"><title>N15</title>
<ellipse fill="none" stroke="black" cx="355.895" cy="-18" rx="27" ry="18"/>
<text text-anchor="middle" x="355.895" y="-14.3" font-family="Times,serif" font-size="14.00">libc</text>
</g>
<!-- N7&#45;&gt;N15 -->
<g id="edge13" class="edge"><title>N7&#45;&gt;N15</title>
<path fill="none" stroke="black" d="M355.895,-71.6966C355.895,-63.9827 355.895,-54.7125 355.895,-46.1124"/>
<polygon fill="black" stroke="black" points="359.395,-46.1043 355.895,-36.1043 352.395,-46.1044 359.395,-46.1043"/>
</g>
<!-- N10&#45;&gt;N15 -->
<g id="edge12" class="edge"><title>N10&#45;&gt;N15</title>
<path fill="none" stroke="black" d="M523.856,-80.5564C490.156,-68.2057 427.254,-45.1524 388.723,-31.0312"/>
<polygon fill="black" stroke="black" points="389.61,-27.6285 379.016,-27.4736 387.201,-34.201 389.61,-27.6285"/>
</g>
<!-- N11&#45;&gt;N14 -->
<g id="edge15" class="edge"><title>N11&#45;&gt;N14</title>
<path fill="none" stroke="black" d="M225.895,-215.697C225.895,-207.983 225.895,-198.712 225.895,-190.112"/>
<polygon fill="black" stroke="black" points="229.395,-190.104 225.895,-180.104 222.395,-190.104 229.395,-190.104"/>
</g>
<!-- N16 -->
<g id="node17" class="node"><title>N16</title>
<ellipse fill="none" stroke="black" cx="120.895" cy="-162" rx="27" ry="18"/>
<text text-anchor="middle" x="120.895" y="-158.3" font-family="Times,serif" font-size="14.00">rand</text>
</g>
<!-- N11&#45;&gt;N16 -->
<g id="edge14" class="edge"><title>N11&#45;&gt;N16</title>
<path fill="none" stroke="black" d="M207.123,-220.485C190.624,-209.486 166.418,-193.349 147.849,-180.97"/>
<polygon fill="black" stroke="black" points="149.766,-178.041 139.504,-175.406 145.883,-183.865 149.766,-178.041"/>
</g>
<!-- N13&#45;&gt;N6 -->
<g id="edge20" class="edge"><title>N13&#45;&gt;N6</title>
<path fill="none" stroke="black" d="M474.578,-219.503C461.203,-209.648 442.788,-196.079 427.356,-184.708"/>
<polygon fill="black" stroke="black" points="429.268,-181.769 419.141,-178.655 425.115,-187.405 429.268,-181.769"/>
</g>
<!-- N13&#45;&gt;N7 -->
<g id="edge21" class="edge"><title>N13&#45;&gt;N7</title>
<path fill="none" stroke="black" d="M469.377,-222.495C464.005,-220.238 458.289,-217.948 452.895,-216 400.526,-197.082 366.133,-224.673 332.895,-180 319.059,-161.404 328.325,-135.263 338.933,-116.123"/>
<polygon fill="black" stroke="black" points="342.046,-117.736 344.153,-107.353 336.031,-114.156 342.046,-117.736"/>
</g>
<!-- N17 -->
<g id="node18" class="node"><title>N17</title>
<ellipse fill="none" stroke="black" cx="527.895" cy="-162" rx="55.7903" ry="18"/>
<text text-anchor="middle" x="527.895" y="-158.3" font-family="Times,serif" font-size="14.00">regex&#45;syntax</text>
</g>
<!-- N13&#45;&gt;N17 -->
<g id="edge22" class="edge"><title>N13&#45;&gt;N17</title>
<path fill="none" stroke="black" d="M501.19,-216.411C505.27,-208.249 510.285,-198.22 514.862,-189.065"/>
<polygon fill="black" stroke="black" points="518.075,-190.466 519.417,-179.956 511.814,-187.335 518.075,-190.466"/>
</g>
<!-- N16&#45;&gt;N3 -->
<g id="edge17" class="edge"><title>N16&#45;&gt;N3</title>
<path fill="none" stroke="black" d="M111.365,-145.116C106.302,-136.679 99.9577,-126.104 94.223,-116.547"/>
<polygon fill="black" stroke="black" points="97.1197,-114.572 88.9734,-107.797 91.1172,-118.173 97.1197,-114.572"/>
</g>
<!-- N16&#45;&gt;N4 -->
<g id="edge19" class="edge"><title>N16&#45;&gt;N4</title>
<path fill="none" stroke="black" d="M129.401,-144.657C134.479,-134.361 140.729,-120.666 144.895,-108 151.59,-87.6452 156.524,-63.8787 159.684,-46.0281"/>
<polygon fill="black" stroke="black" points="163.16,-46.4614 161.38,-36.0172 156.258,-45.2917 163.16,-46.4614"/>
</g>
<!-- N16&#45;&gt;N15 -->
<g id="edge18" class="edge"><title>N16&#45;&gt;N15</title>
<path fill="none" stroke="black" d="M140.527,-149.137C182.187,-123.964 279.566,-65.1221 327.799,-35.9771"/>
<polygon fill="black" stroke="black" points="329.736,-38.8963 336.484,-30.729 326.115,-32.9051 329.736,-38.8963"/>
</g>
</g>
</svg>
